<?xml version="1.0" encoding="utf-8"?>
<!-- Generator: Adobe Illustrator 24.0.2, SVG Export Plug-In . SVG Version: 6.00 Build 0)  -->
<svg version="1.1" id="Capa_1" xmlns="http://www.w3.org/2000/svg" xmlns:xlink="http://www.w3.org/1999/xlink" x="0px" y="0px"
	 viewBox="0 0 512 512" style="enable-background:new 0 0 512 512;" xml:space="preserve">
<style type="text/css">
	.st0{fill:#C92424;}
</style>
<g>
	<g>
		<path class="st0" d="M437,75C388.7,26.6,324.4,0,256,0S123.3,26.6,75,75C26.6,123.3,0,187.6,0,256s26.6,132.7,75,181
			s112.6,75,181,75s132.7-26.6,181-75c48.4-48.4,75-112.6,75-181S485.4,123.3,437,75z M415.8,415.8C373.1,458.5,316.4,482,256,482
			c-60.4,0-117.1-23.5-159.8-66.2C53.5,373.1,30,316.4,30,256S53.5,138.9,96.2,96.2C138.9,53.5,195.6,30,256,30
			s117.1,23.5,159.8,66.2C458.5,138.9,482,195.6,482,256C482,316.4,458.5,373.1,415.8,415.8z"/>
	</g>
</g>
<g>
	<g>
		<path class="st0" d="M337,130.2c-7.1-4.3-16.3-2.1-20.6,5s-2.1,16.3,5,20.6c16.7,10.1,30.4,24.8,39.7,42.3
			c9.4,17.7,14.3,38.4,14.3,59.9c0,65.9-53.6,119.5-119.5,119.5S136.5,323.9,136.5,258c0-41.7,21.2-79.8,56.8-101.7
			c7.1-4.4,9.2-13.6,4.9-20.7c-4.4-7.1-13.6-9.2-20.7-4.9c-21.3,13.2-39.1,31.6-51.5,53.3c-12.8,22.4-19.5,48-19.5,73.9
			c0,82.4,67.1,149.5,149.5,149.5S405.5,340.5,405.5,258C405.5,204,379.9,156.2,337,130.2z"/>
	</g>
</g>
<g>
	<g>
		<path class="st0" d="M256,99.1c-8.3,0-15,6.7-15,15v149.2c0,8.3,6.7,15,15,15c8.3,0,15-6.7,15-15V114.1
			C271,105.8,264.3,99.1,256,99.1z"/>
	</g>
</g>
</svg>
